<mxfile host="app.diagrams.net" modified="2024-03-30T08:56:34.568Z" agent="Mozilla/5.0 (Windows NT 10.0; Win64; x64) AppleWebKit/537.36 (KHTML, like Gecko) Chrome/123.0.0.0 Safari/537.36" etag="gUp4WHpi_zbAEFLXun_0" version="24.0.7" type="github">
  <diagram name="Page-1" id="H6HD89_hHtUthPC1wWjf">
    <mxGraphModel dx="2765" dy="1509" grid="1" gridSize="10" guides="1" tooltips="1" connect="1" arrows="1" fold="1" page="1" pageScale="1" pageWidth="850" pageHeight="1100" math="0" shadow="0">
      <root>
        <mxCell id="0" />
        <mxCell id="1" parent="0" />
        <mxCell id="zrt49NDbFOpdRW2ynpiH-1" value="Sistem Informasi Kesehatan Ibu dan Anak" style="swimlane;whiteSpace=wrap;html=1;" vertex="1" parent="1">
          <mxGeometry x="190" y="90" width="530" height="960" as="geometry" />
        </mxCell>
        <mxCell id="zrt49NDbFOpdRW2ynpiH-11" value="Mengelola hasil pemeriksaan" style="ellipse;whiteSpace=wrap;html=1;" vertex="1" parent="zrt49NDbFOpdRW2ynpiH-1">
          <mxGeometry x="130" y="90" width="155" height="50" as="geometry" />
        </mxCell>
        <mxCell id="zrt49NDbFOpdRW2ynpiH-12" value="Menambah User Ibu" style="ellipse;whiteSpace=wrap;html=1;" vertex="1" parent="zrt49NDbFOpdRW2ynpiH-1">
          <mxGeometry x="50" y="30" width="155" height="50" as="geometry" />
        </mxCell>
        <mxCell id="zrt49NDbFOpdRW2ynpiH-13" value="Melihat hasil pemeriksaan" style="ellipse;whiteSpace=wrap;html=1;" vertex="1" parent="zrt49NDbFOpdRW2ynpiH-1">
          <mxGeometry x="10" y="260" width="155" height="50" as="geometry" />
        </mxCell>
        <mxCell id="zrt49NDbFOpdRW2ynpiH-19" value="Mengelola data petugas" style="ellipse;whiteSpace=wrap;html=1;" vertex="1" parent="zrt49NDbFOpdRW2ynpiH-1">
          <mxGeometry x="340" y="730" width="155" height="50" as="geometry" />
        </mxCell>
        <mxCell id="zrt49NDbFOpdRW2ynpiH-20" value="Mengelola data jorong dan nagari" style="ellipse;whiteSpace=wrap;html=1;" vertex="1" parent="zrt49NDbFOpdRW2ynpiH-1">
          <mxGeometry x="340" y="900" width="155" height="50" as="geometry" />
        </mxCell>
        <mxCell id="zrt49NDbFOpdRW2ynpiH-24" style="edgeStyle=none;rounded=0;orthogonalLoop=1;jettySize=auto;html=1;dashed=1;" edge="1" parent="zrt49NDbFOpdRW2ynpiH-1" source="zrt49NDbFOpdRW2ynpiH-21" target="zrt49NDbFOpdRW2ynpiH-19">
          <mxGeometry relative="1" as="geometry" />
        </mxCell>
        <mxCell id="zrt49NDbFOpdRW2ynpiH-25" style="edgeStyle=none;rounded=0;orthogonalLoop=1;jettySize=auto;html=1;entryX=0.5;entryY=0;entryDx=0;entryDy=0;dashed=1;" edge="1" parent="zrt49NDbFOpdRW2ynpiH-1" source="zrt49NDbFOpdRW2ynpiH-21" target="zrt49NDbFOpdRW2ynpiH-20">
          <mxGeometry relative="1" as="geometry" />
        </mxCell>
        <mxCell id="zrt49NDbFOpdRW2ynpiH-21" value="Mengelola Penempatan Bidan" style="ellipse;whiteSpace=wrap;html=1;" vertex="1" parent="zrt49NDbFOpdRW2ynpiH-1">
          <mxGeometry x="340" y="820" width="155" height="50" as="geometry" />
        </mxCell>
        <mxCell id="zrt49NDbFOpdRW2ynpiH-40" style="edgeStyle=none;rounded=0;orthogonalLoop=1;jettySize=auto;html=1;dashed=1;" edge="1" parent="zrt49NDbFOpdRW2ynpiH-1" source="zrt49NDbFOpdRW2ynpiH-26" target="zrt49NDbFOpdRW2ynpiH-34">
          <mxGeometry relative="1" as="geometry" />
        </mxCell>
        <mxCell id="zrt49NDbFOpdRW2ynpiH-26" value="Cetak Laporan" style="ellipse;whiteSpace=wrap;html=1;" vertex="1" parent="zrt49NDbFOpdRW2ynpiH-1">
          <mxGeometry x="202" y="555" width="155" height="50" as="geometry" />
        </mxCell>
        <mxCell id="zrt49NDbFOpdRW2ynpiH-30" value="Meminta persetujuan laporan Bulanan" style="ellipse;whiteSpace=wrap;html=1;" vertex="1" parent="zrt49NDbFOpdRW2ynpiH-1">
          <mxGeometry x="205" y="410" width="155" height="50" as="geometry" />
        </mxCell>
        <mxCell id="zrt49NDbFOpdRW2ynpiH-32" value="Memberikan feedback pada persetujuan laporan bulanan" style="ellipse;whiteSpace=wrap;html=1;" vertex="1" parent="zrt49NDbFOpdRW2ynpiH-1">
          <mxGeometry x="192.5" y="480" width="180" height="50" as="geometry" />
        </mxCell>
        <mxCell id="zrt49NDbFOpdRW2ynpiH-34" value="Meyetujui laporan" style="ellipse;whiteSpace=wrap;html=1;" vertex="1" parent="zrt49NDbFOpdRW2ynpiH-1">
          <mxGeometry x="202" y="640" width="155" height="50" as="geometry" />
        </mxCell>
        <mxCell id="zrt49NDbFOpdRW2ynpiH-38" value="Meminta persetujuan rekap per jorong" style="ellipse;whiteSpace=wrap;html=1;" vertex="1" parent="zrt49NDbFOpdRW2ynpiH-1">
          <mxGeometry x="195.5" y="190" width="168" height="50" as="geometry" />
        </mxCell>
        <mxCell id="zrt49NDbFOpdRW2ynpiH-56" style="edgeStyle=none;rounded=0;orthogonalLoop=1;jettySize=auto;html=1;entryX=0.5;entryY=1;entryDx=0;entryDy=0;dashed=1;" edge="1" parent="zrt49NDbFOpdRW2ynpiH-1" source="zrt49NDbFOpdRW2ynpiH-44" target="zrt49NDbFOpdRW2ynpiH-38">
          <mxGeometry relative="1" as="geometry" />
        </mxCell>
        <mxCell id="zrt49NDbFOpdRW2ynpiH-44" value="Memberikan feedback pada persetujuan rekap per jorong" style="ellipse;whiteSpace=wrap;html=1;" vertex="1" parent="zrt49NDbFOpdRW2ynpiH-1">
          <mxGeometry x="189.5" y="270" width="180" height="50" as="geometry" />
        </mxCell>
        <mxCell id="zrt49NDbFOpdRW2ynpiH-51" style="edgeStyle=none;rounded=0;orthogonalLoop=1;jettySize=auto;html=1;entryX=1;entryY=0.5;entryDx=0;entryDy=0;dashed=1;" edge="1" parent="zrt49NDbFOpdRW2ynpiH-1" source="zrt49NDbFOpdRW2ynpiH-48" target="zrt49NDbFOpdRW2ynpiH-11">
          <mxGeometry relative="1" as="geometry" />
        </mxCell>
        <mxCell id="zrt49NDbFOpdRW2ynpiH-48" value="Pemeriksaan Anak" style="ellipse;whiteSpace=wrap;html=1;" vertex="1" parent="zrt49NDbFOpdRW2ynpiH-1">
          <mxGeometry x="330" y="40" width="120" height="50" as="geometry" />
        </mxCell>
        <mxCell id="zrt49NDbFOpdRW2ynpiH-52" style="edgeStyle=none;rounded=0;orthogonalLoop=1;jettySize=auto;html=1;entryX=1;entryY=0.5;entryDx=0;entryDy=0;dashed=1;" edge="1" parent="zrt49NDbFOpdRW2ynpiH-1" source="zrt49NDbFOpdRW2ynpiH-50" target="zrt49NDbFOpdRW2ynpiH-11">
          <mxGeometry relative="1" as="geometry" />
        </mxCell>
        <mxCell id="zrt49NDbFOpdRW2ynpiH-50" value="Pemeriksaan Ibu" style="ellipse;whiteSpace=wrap;html=1;" vertex="1" parent="zrt49NDbFOpdRW2ynpiH-1">
          <mxGeometry x="330" y="110" width="120" height="50" as="geometry" />
        </mxCell>
        <mxCell id="zrt49NDbFOpdRW2ynpiH-53" value="Menyetujui rekap per jorong" style="ellipse;whiteSpace=wrap;html=1;" vertex="1" parent="zrt49NDbFOpdRW2ynpiH-1">
          <mxGeometry x="189.5" y="340" width="180" height="50" as="geometry" />
        </mxCell>
        <mxCell id="zrt49NDbFOpdRW2ynpiH-22" style="edgeStyle=none;rounded=0;orthogonalLoop=1;jettySize=auto;html=1;entryX=1;entryY=0.5;entryDx=0;entryDy=0;" edge="1" parent="1" source="zrt49NDbFOpdRW2ynpiH-2" target="zrt49NDbFOpdRW2ynpiH-19">
          <mxGeometry relative="1" as="geometry" />
        </mxCell>
        <mxCell id="zrt49NDbFOpdRW2ynpiH-23" style="edgeStyle=none;rounded=0;orthogonalLoop=1;jettySize=auto;html=1;entryX=1;entryY=0.5;entryDx=0;entryDy=0;" edge="1" parent="1" source="zrt49NDbFOpdRW2ynpiH-2" target="zrt49NDbFOpdRW2ynpiH-20">
          <mxGeometry relative="1" as="geometry" />
        </mxCell>
        <mxCell id="zrt49NDbFOpdRW2ynpiH-2" value="Admin" style="shape=umlActor;verticalLabelPosition=bottom;verticalAlign=top;html=1;outlineConnect=0;" vertex="1" parent="1">
          <mxGeometry x="780" y="900" width="20" height="40" as="geometry" />
        </mxCell>
        <mxCell id="zrt49NDbFOpdRW2ynpiH-14" style="rounded=0;orthogonalLoop=1;jettySize=auto;html=1;entryX=0;entryY=0.5;entryDx=0;entryDy=0;" edge="1" parent="1" source="zrt49NDbFOpdRW2ynpiH-5" target="zrt49NDbFOpdRW2ynpiH-11">
          <mxGeometry relative="1" as="geometry" />
        </mxCell>
        <mxCell id="zrt49NDbFOpdRW2ynpiH-17" style="edgeStyle=none;rounded=0;orthogonalLoop=1;jettySize=auto;html=1;entryX=0;entryY=0.5;entryDx=0;entryDy=0;" edge="1" parent="1" source="zrt49NDbFOpdRW2ynpiH-5" target="zrt49NDbFOpdRW2ynpiH-12">
          <mxGeometry relative="1" as="geometry" />
        </mxCell>
        <mxCell id="zrt49NDbFOpdRW2ynpiH-29" style="edgeStyle=none;rounded=0;orthogonalLoop=1;jettySize=auto;html=1;entryX=0;entryY=0.5;entryDx=0;entryDy=0;" edge="1" parent="1" source="zrt49NDbFOpdRW2ynpiH-5" target="zrt49NDbFOpdRW2ynpiH-13">
          <mxGeometry relative="1" as="geometry" />
        </mxCell>
        <mxCell id="zrt49NDbFOpdRW2ynpiH-39" style="edgeStyle=none;rounded=0;orthogonalLoop=1;jettySize=auto;html=1;entryX=0;entryY=0.5;entryDx=0;entryDy=0;" edge="1" parent="1" source="zrt49NDbFOpdRW2ynpiH-5" target="zrt49NDbFOpdRW2ynpiH-38">
          <mxGeometry relative="1" as="geometry" />
        </mxCell>
        <mxCell id="zrt49NDbFOpdRW2ynpiH-45" style="edgeStyle=none;rounded=0;orthogonalLoop=1;jettySize=auto;html=1;entryX=0;entryY=0.5;entryDx=0;entryDy=0;" edge="1" parent="1" source="zrt49NDbFOpdRW2ynpiH-5" target="zrt49NDbFOpdRW2ynpiH-44">
          <mxGeometry relative="1" as="geometry" />
        </mxCell>
        <mxCell id="zrt49NDbFOpdRW2ynpiH-5" value="Bidan" style="shape=umlActor;verticalLabelPosition=bottom;verticalAlign=top;html=1;outlineConnect=0;" vertex="1" parent="1">
          <mxGeometry x="120" y="120" width="20" height="40" as="geometry" />
        </mxCell>
        <mxCell id="zrt49NDbFOpdRW2ynpiH-28" style="edgeStyle=none;rounded=0;orthogonalLoop=1;jettySize=auto;html=1;entryX=1;entryY=0.5;entryDx=0;entryDy=0;" edge="1" parent="1" source="zrt49NDbFOpdRW2ynpiH-8" target="zrt49NDbFOpdRW2ynpiH-26">
          <mxGeometry relative="1" as="geometry" />
        </mxCell>
        <mxCell id="zrt49NDbFOpdRW2ynpiH-33" style="edgeStyle=none;rounded=0;orthogonalLoop=1;jettySize=auto;html=1;entryX=1;entryY=0.5;entryDx=0;entryDy=0;" edge="1" parent="1" source="zrt49NDbFOpdRW2ynpiH-8" target="zrt49NDbFOpdRW2ynpiH-32">
          <mxGeometry relative="1" as="geometry" />
        </mxCell>
        <mxCell id="zrt49NDbFOpdRW2ynpiH-8" value="Kepala Puskesmas" style="shape=umlActor;verticalLabelPosition=bottom;verticalAlign=top;html=1;outlineConnect=0;" vertex="1" parent="1">
          <mxGeometry x="780" y="650" width="20" height="40" as="geometry" />
        </mxCell>
        <mxCell id="zrt49NDbFOpdRW2ynpiH-15" style="rounded=0;orthogonalLoop=1;jettySize=auto;html=1;entryX=0;entryY=0.5;entryDx=0;entryDy=0;" edge="1" parent="1" source="zrt49NDbFOpdRW2ynpiH-9" target="zrt49NDbFOpdRW2ynpiH-13">
          <mxGeometry relative="1" as="geometry" />
        </mxCell>
        <mxCell id="zrt49NDbFOpdRW2ynpiH-9" value="Ibu" style="shape=umlActor;verticalLabelPosition=bottom;verticalAlign=top;html=1;outlineConnect=0;" vertex="1" parent="1">
          <mxGeometry x="120" y="240" width="20" height="40" as="geometry" />
        </mxCell>
        <mxCell id="zrt49NDbFOpdRW2ynpiH-16" style="rounded=0;orthogonalLoop=1;jettySize=auto;html=1;entryX=0;entryY=0.5;entryDx=0;entryDy=0;" edge="1" parent="1" source="zrt49NDbFOpdRW2ynpiH-10" target="zrt49NDbFOpdRW2ynpiH-13">
          <mxGeometry relative="1" as="geometry" />
        </mxCell>
        <mxCell id="zrt49NDbFOpdRW2ynpiH-27" style="edgeStyle=none;rounded=0;orthogonalLoop=1;jettySize=auto;html=1;entryX=0;entryY=0.5;entryDx=0;entryDy=0;" edge="1" parent="1" source="zrt49NDbFOpdRW2ynpiH-10" target="zrt49NDbFOpdRW2ynpiH-26">
          <mxGeometry relative="1" as="geometry" />
        </mxCell>
        <mxCell id="zrt49NDbFOpdRW2ynpiH-31" style="edgeStyle=none;rounded=0;orthogonalLoop=1;jettySize=auto;html=1;entryX=0;entryY=0.5;entryDx=0;entryDy=0;" edge="1" parent="1" source="zrt49NDbFOpdRW2ynpiH-10" target="zrt49NDbFOpdRW2ynpiH-30">
          <mxGeometry relative="1" as="geometry" />
        </mxCell>
        <mxCell id="zrt49NDbFOpdRW2ynpiH-36" style="edgeStyle=none;rounded=0;orthogonalLoop=1;jettySize=auto;html=1;entryX=0;entryY=0.5;entryDx=0;entryDy=0;" edge="1" parent="1" source="zrt49NDbFOpdRW2ynpiH-10" target="zrt49NDbFOpdRW2ynpiH-32">
          <mxGeometry relative="1" as="geometry" />
        </mxCell>
        <mxCell id="zrt49NDbFOpdRW2ynpiH-47" style="edgeStyle=none;rounded=0;orthogonalLoop=1;jettySize=auto;html=1;entryX=0;entryY=0.5;entryDx=0;entryDy=0;" edge="1" parent="1" source="zrt49NDbFOpdRW2ynpiH-10" target="zrt49NDbFOpdRW2ynpiH-44">
          <mxGeometry relative="1" as="geometry" />
        </mxCell>
        <mxCell id="zrt49NDbFOpdRW2ynpiH-55" style="edgeStyle=none;rounded=0;orthogonalLoop=1;jettySize=auto;html=1;entryX=0;entryY=0.5;entryDx=0;entryDy=0;" edge="1" parent="1" source="zrt49NDbFOpdRW2ynpiH-10" target="zrt49NDbFOpdRW2ynpiH-53">
          <mxGeometry relative="1" as="geometry" />
        </mxCell>
        <mxCell id="zrt49NDbFOpdRW2ynpiH-10" value="Penanggung Jawab KIA" style="shape=umlActor;verticalLabelPosition=bottom;verticalAlign=top;html=1;outlineConnect=0;" vertex="1" parent="1">
          <mxGeometry x="120" y="480" width="20" height="40" as="geometry" />
        </mxCell>
        <mxCell id="zrt49NDbFOpdRW2ynpiH-37" style="edgeStyle=none;rounded=0;orthogonalLoop=1;jettySize=auto;html=1;entryX=0.986;entryY=0.373;entryDx=0;entryDy=0;entryPerimeter=0;" edge="1" parent="1" source="zrt49NDbFOpdRW2ynpiH-8" target="zrt49NDbFOpdRW2ynpiH-34">
          <mxGeometry relative="1" as="geometry">
            <mxPoint x="530" y="620" as="targetPoint" />
          </mxGeometry>
        </mxCell>
      </root>
    </mxGraphModel>
  </diagram>
</mxfile>
